%TF.GenerationSoftware,KiCad,Pcbnew,10.0.3*%
%TF.CreationDate,2026-07-02T15:57:59-04:00*%
%TF.ProjectId,Devboard,44657662-6f61-4726-942e-6b696361645f,rev?*%
%TF.SameCoordinates,Original*%
%TF.FileFunction,Soldermask,Top*%
%TF.FilePolarity,Negative*%
%FSLAX46Y46*%
G04 Gerber Fmt 4.6, Leading zero omitted, Abs format (unit mm)*
G04 Created by KiCad (PCBNEW 10.0.3) date 2026-07-02 15:57:59*
%MOMM*%
%LPD*%
G01*
G04 APERTURE LIST*
G04 Aperture macros list*
%AMRoundRect*
0 Rectangle with rounded corners*
0 $1 Rounding radius*
0 $2 $3 $4 $5 $6 $7 $8 $9 X,Y pos of 4 corners*
0 Add a 4 corners polygon primitive as box body*
4,1,4,$2,$3,$4,$5,$6,$7,$8,$9,$2,$3,0*
0 Add four circle primitives for the rounded corners*
1,1,$1+$1,$2,$3*
1,1,$1+$1,$4,$5*
1,1,$1+$1,$6,$7*
1,1,$1+$1,$8,$9*
0 Add four rect primitives between the rounded corners*
20,1,$1+$1,$2,$3,$4,$5,0*
20,1,$1+$1,$4,$5,$6,$7,0*
20,1,$1+$1,$6,$7,$8,$9,0*
20,1,$1+$1,$8,$9,$2,$3,0*%
G04 Aperture macros list end*
%ADD10RoundRect,0.050000X-0.387500X-0.050000X0.387500X-0.050000X0.387500X0.050000X-0.387500X0.050000X0*%
%ADD11RoundRect,0.050000X-0.050000X-0.387500X0.050000X-0.387500X0.050000X0.387500X-0.050000X0.387500X0*%
%ADD12R,3.200000X3.200000*%
%ADD13RoundRect,0.140000X0.170000X-0.140000X0.170000X0.140000X-0.170000X0.140000X-0.170000X-0.140000X0*%
%ADD14RoundRect,0.135000X0.185000X-0.135000X0.185000X0.135000X-0.185000X0.135000X-0.185000X-0.135000X0*%
%ADD15C,0.650000*%
%ADD16RoundRect,0.150000X0.150000X0.575000X-0.150000X0.575000X-0.150000X-0.575000X0.150000X-0.575000X0*%
%ADD17RoundRect,0.075000X0.075000X0.650000X-0.075000X0.650000X-0.075000X-0.650000X0.075000X-0.650000X0*%
%ADD18O,1.000000X2.100000*%
%ADD19O,1.000000X1.600000*%
%ADD20RoundRect,0.140000X-0.140000X-0.170000X0.140000X-0.170000X0.140000X0.170000X-0.140000X0.170000X0*%
%ADD21RoundRect,0.150000X0.150000X-0.587500X0.150000X0.587500X-0.150000X0.587500X-0.150000X-0.587500X0*%
%ADD22R,1.700000X1.700000*%
%ADD23C,1.700000*%
%ADD24RoundRect,0.250000X0.800000X0.650000X-0.800000X0.650000X-0.800000X-0.650000X0.800000X-0.650000X0*%
%ADD25RoundRect,0.135000X-0.185000X0.135000X-0.185000X-0.135000X0.185000X-0.135000X0.185000X0.135000X0*%
%ADD26RoundRect,0.225000X-0.225000X-0.250000X0.225000X-0.250000X0.225000X0.250000X-0.225000X0.250000X0*%
%ADD27RoundRect,0.140000X-0.170000X0.140000X-0.170000X-0.140000X0.170000X-0.140000X0.170000X0.140000X0*%
%ADD28RoundRect,0.135000X-0.135000X-0.185000X0.135000X-0.185000X0.135000X0.185000X-0.135000X0.185000X0*%
%ADD29RoundRect,0.135000X0.135000X0.185000X-0.135000X0.185000X-0.135000X-0.185000X0.135000X-0.185000X0*%
%ADD30RoundRect,0.218750X-0.218750X-0.256250X0.218750X-0.256250X0.218750X0.256250X-0.218750X0.256250X0*%
%ADD31RoundRect,0.062500X-0.387500X-0.062500X0.387500X-0.062500X0.387500X0.062500X-0.387500X0.062500X0*%
%ADD32R,0.200000X1.600000*%
%ADD33RoundRect,0.200000X-0.200000X-0.800000X0.200000X-0.800000X0.200000X0.800000X-0.200000X0.800000X0*%
G04 APERTURE END LIST*
D10*
%TO.C,U1*%
X176762500Y-75570000D03*
X176762500Y-75970000D03*
X176762500Y-76370000D03*
X176762500Y-76770000D03*
X176762500Y-77170000D03*
X176762500Y-77570000D03*
X176762500Y-77970000D03*
X176762500Y-78370000D03*
X176762500Y-78770000D03*
X176762500Y-79170000D03*
X176762500Y-79570000D03*
X176762500Y-79970000D03*
X176762500Y-80370000D03*
X176762500Y-80770000D03*
D11*
X177600000Y-81607500D03*
X178000000Y-81607500D03*
X178400000Y-81607500D03*
X178800000Y-81607500D03*
X179200000Y-81607500D03*
X179600000Y-81607500D03*
X180000000Y-81607500D03*
X180400000Y-81607500D03*
X180800000Y-81607500D03*
X181200000Y-81607500D03*
X181600000Y-81607500D03*
X182000000Y-81607500D03*
X182400000Y-81607500D03*
X182800000Y-81607500D03*
D10*
X183637500Y-80770000D03*
X183637500Y-80370000D03*
X183637500Y-79970000D03*
X183637500Y-79570000D03*
X183637500Y-79170000D03*
X183637500Y-78770000D03*
X183637500Y-78370000D03*
X183637500Y-77970000D03*
X183637500Y-77570000D03*
X183637500Y-77170000D03*
X183637500Y-76770000D03*
X183637500Y-76370000D03*
X183637500Y-75970000D03*
X183637500Y-75570000D03*
D11*
X182800000Y-74732500D03*
X182400000Y-74732500D03*
X182000000Y-74732500D03*
X181600000Y-74732500D03*
X181200000Y-74732500D03*
X180800000Y-74732500D03*
X180400000Y-74732500D03*
X180000000Y-74732500D03*
X179600000Y-74732500D03*
X179200000Y-74732500D03*
X178800000Y-74732500D03*
X178400000Y-74732500D03*
X178000000Y-74732500D03*
X177600000Y-74732500D03*
D12*
X180200000Y-78170000D03*
%TD*%
D13*
%TO.C,C2*%
X185000000Y-71480000D03*
X185000000Y-70520000D03*
%TD*%
%TO.C,C11*%
X183800000Y-73500000D03*
X183800000Y-72540000D03*
%TD*%
D14*
%TO.C,R8*%
X177600000Y-64300000D03*
X177600000Y-63280000D03*
%TD*%
D15*
%TO.C,J1*%
X182930000Y-51850000D03*
X177150000Y-51850000D03*
D16*
X183290000Y-53295000D03*
X182490000Y-53295000D03*
D17*
X181290000Y-53295000D03*
X180290000Y-53295000D03*
X179790000Y-53295000D03*
X178790000Y-53295000D03*
D16*
X177590000Y-53295000D03*
X176790000Y-53295000D03*
X176790000Y-53295000D03*
X177590000Y-53295000D03*
D17*
X178290000Y-53295000D03*
X179290000Y-53295000D03*
X180790000Y-53295000D03*
X181790000Y-53295000D03*
D16*
X182490000Y-53295000D03*
X183290000Y-53295000D03*
D18*
X184360000Y-52380000D03*
D19*
X184360000Y-48200000D03*
D18*
X175720000Y-52380000D03*
D19*
X175720000Y-48200000D03*
%TD*%
D20*
%TO.C,C9*%
X184820000Y-73900000D03*
X185780000Y-73900000D03*
%TD*%
D21*
%TO.C,U2*%
X176100000Y-59375000D03*
X178000000Y-59375000D03*
X177050000Y-57500000D03*
%TD*%
D22*
%TO.C,J4*%
X177500000Y-96140000D03*
D23*
X180040000Y-96140000D03*
X182580000Y-96140000D03*
%TD*%
D24*
%TO.C,Y1*%
X181450000Y-87850000D03*
X178550000Y-87850000D03*
X178550000Y-90150000D03*
X181450000Y-90150000D03*
%TD*%
D25*
%TO.C,R2*%
X181500000Y-54990000D03*
X181500000Y-56010000D03*
%TD*%
D13*
%TO.C,C16*%
X183250000Y-88230000D03*
X183250000Y-87270000D03*
%TD*%
D20*
%TO.C,C17*%
X177520000Y-68000000D03*
X178480000Y-68000000D03*
%TD*%
%TO.C,C8*%
X185000000Y-75500000D03*
X185960000Y-75500000D03*
%TD*%
D26*
%TO.C,C14*%
X176250000Y-61100000D03*
X177800000Y-61100000D03*
%TD*%
D22*
%TO.C,J2*%
X171150000Y-48220000D03*
D23*
X171150000Y-50760000D03*
X171150000Y-53300000D03*
X171150000Y-55840000D03*
X171150000Y-58380000D03*
X171150000Y-60920000D03*
X171150000Y-63460000D03*
X171150000Y-66000000D03*
X171150000Y-68540000D03*
X171150000Y-71080000D03*
X171150000Y-73620000D03*
X171150000Y-76160000D03*
X171150000Y-78700000D03*
X171150000Y-81240000D03*
X171150000Y-83780000D03*
X171150000Y-86320000D03*
X171150000Y-88860000D03*
X171150000Y-91400000D03*
X171150000Y-93940000D03*
X171150000Y-96480000D03*
%TD*%
D25*
%TO.C,R4*%
X181300000Y-71890000D03*
X181300000Y-72910000D03*
%TD*%
D13*
%TO.C,C3*%
X175750000Y-74480000D03*
X175750000Y-73520000D03*
%TD*%
D14*
%TO.C,R9*%
X186300000Y-53920000D03*
X186300000Y-52900000D03*
%TD*%
D27*
%TO.C,C4*%
X180750000Y-83020000D03*
X180750000Y-83980000D03*
%TD*%
D25*
%TO.C,R1*%
X178600000Y-55080000D03*
X178600000Y-56100000D03*
%TD*%
D22*
%TO.C,J3*%
X188930000Y-48180000D03*
D23*
X188930000Y-50720000D03*
X188930000Y-53260000D03*
X188930000Y-55800000D03*
X188930000Y-58340000D03*
X188930000Y-60880000D03*
X188930000Y-63420000D03*
X188930000Y-65960000D03*
X188930000Y-68500000D03*
X188930000Y-71040000D03*
X188930000Y-73580000D03*
X188930000Y-76120000D03*
X188930000Y-78660000D03*
X188930000Y-81200000D03*
X188930000Y-83740000D03*
X188930000Y-86280000D03*
X188930000Y-88820000D03*
X188930000Y-91360000D03*
X188930000Y-93900000D03*
X188930000Y-96440000D03*
%TD*%
D28*
%TO.C,R10*%
X177490000Y-65750000D03*
X178510000Y-65750000D03*
%TD*%
D13*
%TO.C,C15*%
X179250000Y-85980000D03*
X179250000Y-85020000D03*
%TD*%
D29*
%TO.C,R11*%
X178510000Y-66750000D03*
X177490000Y-66750000D03*
%TD*%
D26*
%TO.C,C13*%
X175450000Y-55500000D03*
X177000000Y-55500000D03*
%TD*%
D25*
%TO.C,R3*%
X182300000Y-71890000D03*
X182300000Y-72910000D03*
%TD*%
D30*
%TO.C,D2*%
X184900000Y-55900000D03*
X186475000Y-55900000D03*
%TD*%
D13*
%TO.C,C10*%
X180300000Y-70600000D03*
X180300000Y-69640000D03*
%TD*%
D20*
%TO.C,C1*%
X185720000Y-79100000D03*
X186680000Y-79100000D03*
%TD*%
D29*
%TO.C,R5*%
X181260000Y-86000000D03*
X180240000Y-86000000D03*
%TD*%
D14*
%TO.C,R6*%
X174750000Y-73010000D03*
X174750000Y-71990000D03*
%TD*%
D30*
%TO.C,D1*%
X174425000Y-63900000D03*
X176000000Y-63900000D03*
%TD*%
D13*
%TO.C,C7*%
X180400000Y-68780000D03*
X180400000Y-67820000D03*
%TD*%
D27*
%TO.C,C6*%
X174300000Y-80740000D03*
X174300000Y-81700000D03*
%TD*%
D31*
%TO.C,U3*%
X175650000Y-69500000D03*
X175650000Y-70000000D03*
X175650000Y-70500000D03*
X175650000Y-71000000D03*
X178500000Y-71000000D03*
X178500000Y-70500000D03*
X178500000Y-70000000D03*
X178500000Y-69500000D03*
D32*
X177075000Y-70250000D03*
%TD*%
D33*
%TO.C,SW1*%
X181900000Y-59300000D03*
X186100000Y-59300000D03*
%TD*%
D27*
%TO.C,C12*%
X182500000Y-84340000D03*
X182500000Y-85300000D03*
%TD*%
D25*
%TO.C,R7*%
X184700000Y-62700000D03*
X184700000Y-63720000D03*
%TD*%
D13*
%TO.C,C5*%
X181500000Y-67480000D03*
X181500000Y-66520000D03*
%TD*%
M02*
