%TF.GenerationSoftware,KiCad,Pcbnew,10.0.3*%
%TF.CreationDate,2026-07-02T15:57:59-04:00*%
%TF.ProjectId,Devboard,44657662-6f61-4726-942e-6b696361645f,rev?*%
%TF.SameCoordinates,Original*%
%TF.FileFunction,Legend,Bot*%
%TF.FilePolarity,Positive*%
%FSLAX46Y46*%
G04 Gerber Fmt 4.6, Leading zero omitted, Abs format (unit mm)*
G04 Created by KiCad (PCBNEW 10.0.3) date 2026-07-02 15:57:59*
%MOMM*%
%LPD*%
G01*
G04 APERTURE LIST*
%ADD10C,0.000000*%
G04 APERTURE END LIST*
D10*
%TO.C,G\u002A\u002A\u002A*%
G36*
X181837656Y-52964432D02*
G01*
X181858671Y-53018420D01*
X181819459Y-53141972D01*
X181725746Y-53325524D01*
X181583257Y-53559514D01*
X181397719Y-53834379D01*
X181174858Y-54140557D01*
X180920399Y-54468483D01*
X180772974Y-54649295D01*
X180582742Y-54876474D01*
X180372924Y-55122483D01*
X180158080Y-55370635D01*
X179952768Y-55604245D01*
X179771549Y-55806626D01*
X179628982Y-55961091D01*
X179539627Y-56050955D01*
X179503028Y-56085144D01*
X179436879Y-56174349D01*
X179467669Y-56229157D01*
X179599371Y-56263712D01*
X179602835Y-56264256D01*
X179721531Y-56280552D01*
X179918560Y-56305207D01*
X180175581Y-56336133D01*
X180474250Y-56371241D01*
X180796225Y-56408443D01*
X181123165Y-56445651D01*
X181436727Y-56480777D01*
X181718568Y-56511732D01*
X181950346Y-56536428D01*
X182113719Y-56552777D01*
X182190345Y-56558691D01*
X182260135Y-56513230D01*
X182358972Y-56388367D01*
X182473061Y-56201504D01*
X182524688Y-56111204D01*
X182650197Y-55902474D01*
X182810447Y-55644609D01*
X182990213Y-55361978D01*
X183174273Y-55078952D01*
X183421337Y-54716780D01*
X183758998Y-54271627D01*
X184076193Y-53919020D01*
X184379077Y-53653805D01*
X184673808Y-53470831D01*
X184966543Y-53364947D01*
X185213714Y-53336686D01*
X185263440Y-53331001D01*
X185364232Y-53341708D01*
X185602770Y-53427757D01*
X185867222Y-53588856D01*
X186143403Y-53811590D01*
X186417128Y-54082543D01*
X186674211Y-54388300D01*
X186900467Y-54715446D01*
X187081711Y-55050566D01*
X187182974Y-55331334D01*
X187230437Y-55672953D01*
X187191000Y-55988542D01*
X187066874Y-56263784D01*
X186860270Y-56484363D01*
X186782059Y-56538464D01*
X186481195Y-56684642D01*
X186103380Y-56797915D01*
X185667547Y-56874614D01*
X185192630Y-56911068D01*
X184697562Y-56903608D01*
X184390849Y-56884294D01*
X183965515Y-56855988D01*
X183565711Y-56827698D01*
X183207462Y-56800646D01*
X182906794Y-56776055D01*
X182679732Y-56755148D01*
X182542300Y-56739147D01*
X182349915Y-56710184D01*
X182068830Y-57203292D01*
X182050843Y-57234764D01*
X181820789Y-57626208D01*
X181562148Y-58049297D01*
X181290841Y-58479157D01*
X181022787Y-58890914D01*
X180773907Y-59259692D01*
X180560121Y-59560619D01*
X180217593Y-60024733D01*
X180417805Y-60038163D01*
X180663404Y-60057095D01*
X181162856Y-60106155D01*
X181742805Y-60174178D01*
X182388637Y-60259295D01*
X183085732Y-60359636D01*
X183819476Y-60473331D01*
X183893004Y-60485103D01*
X184332412Y-60554967D01*
X184767898Y-60623457D01*
X185179352Y-60687458D01*
X185546666Y-60743860D01*
X185849730Y-60789550D01*
X186068434Y-60821414D01*
X186360112Y-60866373D01*
X186686390Y-60931395D01*
X186908138Y-60997813D01*
X187026118Y-61065962D01*
X187041096Y-61136176D01*
X186953833Y-61208789D01*
X186918559Y-61224285D01*
X186747150Y-61263045D01*
X186479742Y-61288383D01*
X186115055Y-61300284D01*
X185651808Y-61298731D01*
X185088720Y-61283710D01*
X184424510Y-61255204D01*
X183657897Y-61213197D01*
X182787601Y-61157675D01*
X182625601Y-61147299D01*
X182327778Y-61131080D01*
X182063790Y-61120236D01*
X181857533Y-61115661D01*
X181732904Y-61118248D01*
X181524875Y-61135983D01*
X182069461Y-61580680D01*
X182114671Y-61617943D01*
X182556689Y-62021449D01*
X182947515Y-62450043D01*
X183275243Y-62887981D01*
X183527967Y-63319515D01*
X183693781Y-63728900D01*
X183695563Y-63734855D01*
X183762593Y-64050644D01*
X183793030Y-64400122D01*
X183787378Y-64749860D01*
X183746141Y-65066428D01*
X183669825Y-65316400D01*
X183511278Y-65595032D01*
X183300007Y-65824006D01*
X183022036Y-66007879D01*
X182658202Y-66162684D01*
X182653748Y-66164292D01*
X182625200Y-66180556D01*
X182641031Y-66193830D01*
X182708923Y-66204345D01*
X182836557Y-66212333D01*
X183031613Y-66218026D01*
X183301773Y-66221656D01*
X183654718Y-66223453D01*
X184098128Y-66223651D01*
X184639684Y-66222481D01*
X185184892Y-66221400D01*
X185679011Y-66222290D01*
X186084648Y-66226132D01*
X186410801Y-66233770D01*
X186666467Y-66246045D01*
X186860643Y-66263798D01*
X187002329Y-66287870D01*
X187100520Y-66319103D01*
X187164216Y-66358339D01*
X187202413Y-66406418D01*
X187224110Y-66464184D01*
X187222519Y-66574335D01*
X187161519Y-66746963D01*
X187050830Y-66931024D01*
X186906718Y-67094230D01*
X186811898Y-67173863D01*
X186649979Y-67301275D01*
X186447341Y-67455622D01*
X186227184Y-67618988D01*
X185886982Y-67871548D01*
X185368763Y-68273739D01*
X184943094Y-68629320D01*
X184770254Y-68780719D01*
X184880673Y-68891139D01*
X184928257Y-68948137D01*
X184973393Y-69068545D01*
X184978036Y-69249187D01*
X184976927Y-69271911D01*
X184982201Y-69431024D01*
X185029521Y-69546111D01*
X185139586Y-69671250D01*
X185154097Y-69685844D01*
X185255018Y-69803553D01*
X185292125Y-69905656D01*
X185283105Y-70037255D01*
X185277085Y-70070495D01*
X185174528Y-70373127D01*
X184985852Y-70709326D01*
X184720248Y-71070047D01*
X184386905Y-71446246D01*
X183995013Y-71828880D01*
X183553761Y-72208906D01*
X183072339Y-72577278D01*
X182559938Y-72924954D01*
X182025746Y-73242889D01*
X181687225Y-73430286D01*
X181946371Y-73465990D01*
X182259368Y-73519623D01*
X182584963Y-73610024D01*
X182884580Y-73739070D01*
X182990079Y-73790550D01*
X183104720Y-73840326D01*
X183154146Y-73852770D01*
X183155975Y-73849721D01*
X183186005Y-73782804D01*
X183234958Y-73663331D01*
X183313323Y-73535889D01*
X183446731Y-73464393D01*
X183544510Y-73471013D01*
X183629486Y-73476767D01*
X183866067Y-73573456D01*
X184160952Y-73754901D01*
X184365658Y-73895741D01*
X184397766Y-73917832D01*
X184812231Y-73780850D01*
X184870649Y-73761366D01*
X185062001Y-73694956D01*
X185177627Y-73651749D01*
X185208308Y-73640284D01*
X185281703Y-73607634D01*
X185289558Y-73600831D01*
X185348865Y-73521562D01*
X185374373Y-73480904D01*
X185589883Y-73480904D01*
X185648515Y-73476127D01*
X185784544Y-73433187D01*
X185979096Y-73359694D01*
X186213655Y-73263650D01*
X186469703Y-73153058D01*
X186728722Y-73035920D01*
X186972196Y-72920239D01*
X187181605Y-72814018D01*
X187338434Y-72725258D01*
X187440066Y-72659896D01*
X187734426Y-72445056D01*
X187987146Y-72222690D01*
X188180013Y-72009957D01*
X188294816Y-71824019D01*
X188316788Y-71768817D01*
X188364446Y-71580159D01*
X188338549Y-71445084D01*
X188236620Y-71343118D01*
X188203280Y-71323759D01*
X188003756Y-71276852D01*
X187759572Y-71307823D01*
X187482767Y-71408398D01*
X187185377Y-71570306D01*
X186879442Y-71785271D01*
X186576997Y-72045021D01*
X186290082Y-72341282D01*
X186030733Y-72665781D01*
X185810989Y-73010244D01*
X185746833Y-73128008D01*
X185658227Y-73301790D01*
X185602576Y-73426518D01*
X185589883Y-73480904D01*
X185374373Y-73480904D01*
X185437769Y-73379857D01*
X185540207Y-73200983D01*
X185761978Y-72816902D01*
X185986332Y-72478350D01*
X186209656Y-72199155D01*
X186447772Y-71957642D01*
X186648842Y-71783170D01*
X187003653Y-71521030D01*
X187347498Y-71322379D01*
X187667828Y-71192938D01*
X187952093Y-71138426D01*
X188003756Y-71144156D01*
X188187744Y-71164564D01*
X188204784Y-71170527D01*
X188339801Y-71240999D01*
X188423632Y-71323200D01*
X188449098Y-71385970D01*
X188474353Y-71583836D01*
X188448333Y-71801961D01*
X188374663Y-71990923D01*
X188218926Y-72200842D01*
X187916715Y-72488441D01*
X187515103Y-72774074D01*
X187017797Y-73055470D01*
X186428505Y-73330362D01*
X185750934Y-73596481D01*
X185618790Y-73646022D01*
X185503570Y-73703605D01*
X185422677Y-73779626D01*
X185350280Y-73900148D01*
X185260545Y-74091236D01*
X185240613Y-74135314D01*
X185162985Y-74313458D01*
X185108726Y-74448480D01*
X185088565Y-74514004D01*
X185106553Y-74543711D01*
X185185382Y-74641960D01*
X185315992Y-74793845D01*
X185486442Y-74985559D01*
X185684788Y-75203296D01*
X185845425Y-75378306D01*
X186506217Y-76111641D01*
X187138138Y-76834424D01*
X187735101Y-77538974D01*
X188291019Y-78217612D01*
X188799804Y-78862655D01*
X189255370Y-79466424D01*
X189651628Y-80021238D01*
X189982492Y-80519415D01*
X190241874Y-80953275D01*
X190261495Y-80988963D01*
X190360563Y-81184182D01*
X190417142Y-81323692D01*
X190429370Y-81398093D01*
X190395385Y-81397984D01*
X190313324Y-81313965D01*
X190281988Y-81272852D01*
X190186058Y-81130803D01*
X190066310Y-80939481D01*
X189941490Y-80728403D01*
X189880074Y-80624732D01*
X189669322Y-80298496D01*
X189397437Y-79909260D01*
X189072618Y-79467358D01*
X188703063Y-78983124D01*
X188296972Y-78466891D01*
X187862543Y-77928994D01*
X187407976Y-77379767D01*
X186941470Y-76829543D01*
X186471223Y-76288656D01*
X186005435Y-75767441D01*
X185954177Y-75710999D01*
X185725063Y-75460053D01*
X185514940Y-75231972D01*
X185336772Y-75040692D01*
X185203525Y-74900154D01*
X185128164Y-74824295D01*
X184995030Y-74701358D01*
X184730801Y-75379920D01*
X184691140Y-75482443D01*
X184599421Y-75726558D01*
X184513682Y-75967748D01*
X184428354Y-76223536D01*
X184337868Y-76511447D01*
X184236655Y-76849003D01*
X184119147Y-77253728D01*
X183979774Y-77743146D01*
X183906064Y-77993204D01*
X183799128Y-78309755D01*
X183704783Y-78524061D01*
X183621685Y-78637694D01*
X183548490Y-78652225D01*
X183483854Y-78569225D01*
X183426435Y-78390267D01*
X183423402Y-78377048D01*
X183394598Y-78205213D01*
X183363296Y-77947469D01*
X183330920Y-77621648D01*
X183298899Y-77245579D01*
X183268658Y-76837095D01*
X183241623Y-76414026D01*
X183219221Y-75994205D01*
X183202878Y-75595462D01*
X183201024Y-75540767D01*
X183189685Y-75226700D01*
X183178713Y-74954695D01*
X183168836Y-74740683D01*
X183160778Y-74600594D01*
X183155265Y-74550358D01*
X183144283Y-74557244D01*
X183076279Y-74614812D01*
X182969981Y-74711749D01*
X182810290Y-74843561D01*
X182492632Y-75052622D01*
X182092460Y-75271093D01*
X181622834Y-75493842D01*
X181096817Y-75715741D01*
X180527470Y-75931660D01*
X179927855Y-76136470D01*
X179311033Y-76325040D01*
X178690067Y-76492241D01*
X178078017Y-76632944D01*
X177608104Y-76723626D01*
X177069171Y-76806493D01*
X176598824Y-76853569D01*
X176202284Y-76865006D01*
X175884774Y-76840953D01*
X175651515Y-76781561D01*
X175507731Y-76686981D01*
X175458642Y-76557363D01*
X175459887Y-76549357D01*
X175577240Y-76549357D01*
X175582228Y-76605363D01*
X175673027Y-76662359D01*
X175862368Y-76696983D01*
X176151941Y-76709500D01*
X176543434Y-76700173D01*
X176789412Y-76684358D01*
X177454595Y-76603841D01*
X178177158Y-76469243D01*
X178936860Y-76286251D01*
X179713454Y-76060548D01*
X180486699Y-75797821D01*
X181236350Y-75503754D01*
X181942164Y-75184033D01*
X182165974Y-75068872D01*
X182398191Y-74937903D01*
X182608996Y-74808387D01*
X182784030Y-74690063D01*
X182908938Y-74592671D01*
X182969364Y-74525951D01*
X182950950Y-74499644D01*
X182934124Y-74501637D01*
X182826363Y-74524019D01*
X182632016Y-74568956D01*
X182362223Y-74633628D01*
X182028123Y-74715214D01*
X181640856Y-74810894D01*
X181211561Y-74917845D01*
X180751379Y-75033248D01*
X180271448Y-75154282D01*
X179782908Y-75278126D01*
X179296900Y-75401958D01*
X178824561Y-75522959D01*
X178377033Y-75638308D01*
X177965454Y-75745183D01*
X177600964Y-75840764D01*
X177294703Y-75922229D01*
X177057811Y-75986759D01*
X176901426Y-76031533D01*
X176459254Y-76169504D01*
X176088690Y-76295549D01*
X175817176Y-76401260D01*
X175646198Y-76486056D01*
X175577240Y-76549357D01*
X175459887Y-76549357D01*
X175463430Y-76526574D01*
X175515208Y-76455645D01*
X175636348Y-76373914D01*
X175842288Y-76269808D01*
X176001685Y-76199200D01*
X176191347Y-76124418D01*
X176414782Y-76045246D01*
X176679690Y-75959498D01*
X176993769Y-75864985D01*
X177364717Y-75759521D01*
X177800232Y-75640919D01*
X178308013Y-75506991D01*
X178895758Y-75355549D01*
X179571165Y-75184408D01*
X180341932Y-74991379D01*
X180538724Y-74942210D01*
X181046595Y-74814336D01*
X181520973Y-74693510D01*
X181951963Y-74582337D01*
X182329668Y-74483423D01*
X182644191Y-74399376D01*
X182713405Y-74380291D01*
X183316767Y-74380291D01*
X183332036Y-75192928D01*
X183335405Y-75333657D01*
X183347590Y-75669020D01*
X183365650Y-76044103D01*
X183388300Y-76440725D01*
X183414252Y-76840703D01*
X183442221Y-77225853D01*
X183470922Y-77577993D01*
X183499068Y-77878940D01*
X183525374Y-78110512D01*
X183548553Y-78254525D01*
X183590223Y-78439733D01*
X183669369Y-78254525D01*
X183706202Y-78153443D01*
X183767170Y-77966064D01*
X183844690Y-77715597D01*
X183932590Y-77422004D01*
X184024700Y-77105245D01*
X184056221Y-76995985D01*
X184210426Y-76481245D01*
X184368541Y-75983039D01*
X184523351Y-75522944D01*
X184667644Y-75122542D01*
X184794205Y-74803412D01*
X184812501Y-74759945D01*
X184859127Y-74644346D01*
X184877809Y-74589756D01*
X184877798Y-74589587D01*
X184841957Y-74545836D01*
X184750075Y-74449318D01*
X184621734Y-74320613D01*
X184365658Y-74068388D01*
X183841213Y-74224339D01*
X183316767Y-74380291D01*
X182713405Y-74380291D01*
X182885637Y-74332800D01*
X182950950Y-74313637D01*
X183044108Y-74286303D01*
X183109708Y-74262491D01*
X183160857Y-74201909D01*
X183143260Y-74104398D01*
X183089556Y-74054660D01*
X183290309Y-74054660D01*
X183293970Y-74145023D01*
X183320065Y-74212343D01*
X183382913Y-74212961D01*
X183456260Y-74192009D01*
X183608885Y-74149073D01*
X183793017Y-74097703D01*
X183942412Y-74053108D01*
X184015663Y-74027484D01*
X184514053Y-74027484D01*
X184715574Y-74209546D01*
X184791018Y-74276027D01*
X184892699Y-74359132D01*
X184943852Y-74391608D01*
X184963574Y-74370301D01*
X185016034Y-74275473D01*
X185082959Y-74130444D01*
X185090157Y-74113686D01*
X185160706Y-73942230D01*
X185189002Y-73848033D01*
X185177627Y-73813895D01*
X185129163Y-73822614D01*
X185083762Y-73838545D01*
X184954581Y-73882206D01*
X184788535Y-73937255D01*
X184514053Y-74027484D01*
X184015663Y-74027484D01*
X184082850Y-74003981D01*
X184153571Y-73969633D01*
X184145328Y-73922952D01*
X184066283Y-73848135D01*
X183940743Y-73762386D01*
X183794643Y-73681536D01*
X183653920Y-73621416D01*
X183544510Y-73597858D01*
X183511214Y-73599824D01*
X183387423Y-73661647D01*
X183314321Y-73812301D01*
X183290309Y-74054660D01*
X183089556Y-74054660D01*
X183021531Y-73991659D01*
X182795418Y-73863372D01*
X182504551Y-73741943D01*
X182059974Y-73632833D01*
X181563295Y-73597858D01*
X181480149Y-73596626D01*
X181306349Y-73578723D01*
X181234358Y-73538760D01*
X181264377Y-73475780D01*
X181396611Y-73388828D01*
X181631260Y-73276946D01*
X181782660Y-73204913D01*
X182037442Y-73068556D01*
X182312725Y-72908087D01*
X182570531Y-72745012D01*
X182758017Y-72617897D01*
X183234523Y-72271467D01*
X183670458Y-71920849D01*
X184060327Y-71572688D01*
X184398631Y-71233628D01*
X184679875Y-70910315D01*
X184898561Y-70609392D01*
X185049192Y-70337506D01*
X185126271Y-70101301D01*
X185124302Y-69907421D01*
X185037787Y-69762511D01*
X185009942Y-69738141D01*
X184956929Y-69709027D01*
X184900278Y-69725608D01*
X184817899Y-69799141D01*
X184687703Y-69940878D01*
X184356832Y-70244368D01*
X183956007Y-70487452D01*
X183521303Y-70640974D01*
X183070127Y-70696801D01*
X182899934Y-70691962D01*
X182685653Y-70652768D01*
X182569616Y-70574267D01*
X182552516Y-70461616D01*
X182682126Y-70461616D01*
X182715873Y-70534538D01*
X182820623Y-70568224D01*
X183012575Y-70578320D01*
X183250282Y-70557273D01*
X183504087Y-70506149D01*
X183504293Y-70506096D01*
X183866560Y-70375769D01*
X184207520Y-70187779D01*
X184485217Y-69965255D01*
X184533924Y-69914834D01*
X184646727Y-69784998D01*
X184717610Y-69684732D01*
X184742254Y-69617859D01*
X184707108Y-69576423D01*
X184587293Y-69546340D01*
X184485369Y-69534343D01*
X184188349Y-69555865D01*
X183850275Y-69645827D01*
X183492917Y-69797361D01*
X183138044Y-70003599D01*
X183073394Y-70047906D01*
X182868250Y-70209039D01*
X182735373Y-70350029D01*
X182682126Y-70461616D01*
X182552516Y-70461616D01*
X182551685Y-70456143D01*
X182631722Y-70298082D01*
X182809590Y-70099768D01*
X182993549Y-69948059D01*
X183235437Y-69785807D01*
X183484278Y-69648377D01*
X183585129Y-69600218D01*
X183776688Y-69517998D01*
X183938311Y-69471765D01*
X184114221Y-69451154D01*
X184348642Y-69445802D01*
X184485369Y-69444497D01*
X184523129Y-69444136D01*
X184677267Y-69436434D01*
X184765472Y-69417065D01*
X184810448Y-69380146D01*
X184834894Y-69319793D01*
X184847770Y-69252510D01*
X184832942Y-69102847D01*
X184768823Y-68987428D01*
X184670575Y-68941191D01*
X184614459Y-68936890D01*
X184541001Y-68891677D01*
X184559296Y-68801946D01*
X184669372Y-68673591D01*
X184676280Y-68667184D01*
X184806738Y-68553694D01*
X185003904Y-68390700D01*
X185251229Y-68191325D01*
X185532163Y-67968691D01*
X185830158Y-67735920D01*
X186128665Y-67506136D01*
X186411135Y-67292460D01*
X186485188Y-67236080D01*
X186754482Y-67009935D01*
X186949179Y-66808396D01*
X187062640Y-66639135D01*
X187088227Y-66509825D01*
X187066571Y-66474033D01*
X186959331Y-66423601D01*
X186755652Y-66383991D01*
X186725816Y-66380704D01*
X186565998Y-66372021D01*
X186317717Y-66365929D01*
X185994162Y-66362272D01*
X185608523Y-66360895D01*
X185173990Y-66361642D01*
X184703754Y-66364356D01*
X184211005Y-66368881D01*
X183708932Y-66375061D01*
X183210727Y-66382741D01*
X182729578Y-66391765D01*
X182278678Y-66401976D01*
X181871214Y-66413218D01*
X181520378Y-66425335D01*
X181239360Y-66438173D01*
X181041351Y-66451573D01*
X181031959Y-66452413D01*
X180745298Y-66477057D01*
X180397746Y-66505497D01*
X180032305Y-66534281D01*
X179691976Y-66559954D01*
X179589153Y-66567852D01*
X179226351Y-66599550D01*
X178816054Y-66639826D01*
X178401294Y-66684324D01*
X178025101Y-66728689D01*
X177899396Y-66743639D01*
X177509865Y-66782597D01*
X177099985Y-66814648D01*
X176711417Y-66836807D01*
X176385825Y-66846092D01*
X176209853Y-66846870D01*
X175964262Y-66845096D01*
X175799493Y-66837754D01*
X175699450Y-66823119D01*
X175648042Y-66799470D01*
X175629173Y-66765083D01*
X175629599Y-66754474D01*
X176147857Y-66754474D01*
X176159342Y-66765634D01*
X176213948Y-66768907D01*
X176324086Y-66763515D01*
X176502168Y-66748682D01*
X176760603Y-66723632D01*
X177111805Y-66687587D01*
X177329977Y-66663895D01*
X177590504Y-66632376D01*
X177785592Y-66604933D01*
X177908654Y-66583133D01*
X177953099Y-66568542D01*
X177912340Y-66562727D01*
X177779787Y-66567254D01*
X177548851Y-66583689D01*
X177462649Y-66590834D01*
X177150099Y-66619053D01*
X176850614Y-66649329D01*
X176582673Y-66679492D01*
X176364757Y-66707371D01*
X176215348Y-66730798D01*
X176152926Y-66747602D01*
X176147857Y-66754474D01*
X175629599Y-66754474D01*
X175630254Y-66738162D01*
X175666993Y-66701805D01*
X175760770Y-66668850D01*
X175927639Y-66634322D01*
X176183657Y-66593245D01*
X176397681Y-66564306D01*
X176782167Y-66521764D01*
X177238691Y-66479371D01*
X177747316Y-66438421D01*
X177912340Y-66426760D01*
X178288106Y-66400206D01*
X178841125Y-66366018D01*
X179386437Y-66337151D01*
X179904105Y-66314898D01*
X180374194Y-66300551D01*
X180776767Y-66295403D01*
X181327225Y-66273389D01*
X181861344Y-66208295D01*
X182348175Y-66104055D01*
X182769400Y-65964613D01*
X183106697Y-65793912D01*
X183307876Y-65642436D01*
X183463814Y-65457809D01*
X183564297Y-65231872D01*
X183618032Y-64944499D01*
X183633724Y-64575566D01*
X183633698Y-64561402D01*
X183620962Y-64179633D01*
X183578279Y-63866792D01*
X183495659Y-63588929D01*
X183363105Y-63312094D01*
X183170626Y-63002337D01*
X183044936Y-62822256D01*
X182799400Y-62509802D01*
X182510497Y-62190098D01*
X182162906Y-61846644D01*
X181741307Y-61462937D01*
X181620015Y-61352454D01*
X181471595Y-61205958D01*
X181370035Y-61091196D01*
X181332392Y-61026375D01*
X181333411Y-61015797D01*
X181353220Y-60987668D01*
X181406209Y-60968060D01*
X181502705Y-60957002D01*
X181653036Y-60954522D01*
X181867531Y-60960650D01*
X182156516Y-60975413D01*
X182530318Y-60998839D01*
X182999267Y-61030958D01*
X183397614Y-61057023D01*
X183871471Y-61083846D01*
X184351267Y-61107089D01*
X184823058Y-61126355D01*
X185272899Y-61141249D01*
X185686844Y-61151374D01*
X186050951Y-61156333D01*
X186351273Y-61155731D01*
X186573867Y-61149171D01*
X186704788Y-61136257D01*
X186714296Y-61134307D01*
X186777968Y-61117041D01*
X186788732Y-61099551D01*
X186736198Y-61079020D01*
X186609974Y-61052635D01*
X186399669Y-61017579D01*
X186094892Y-60971039D01*
X185878230Y-60938193D01*
X185531266Y-60884673D01*
X185124427Y-60821173D01*
X184682548Y-60751592D01*
X184230466Y-60679827D01*
X183793017Y-60609776D01*
X183604664Y-60579644D01*
X182837997Y-60461456D01*
X182158471Y-60364779D01*
X181553031Y-60287928D01*
X181008621Y-60229222D01*
X180512184Y-60186978D01*
X180088851Y-60156281D01*
X179797809Y-60529216D01*
X179482501Y-60902955D01*
X179108082Y-61282875D01*
X178729533Y-61606043D01*
X178369059Y-61851900D01*
X178057316Y-62018104D01*
X177572906Y-62219633D01*
X177094516Y-62354222D01*
X176635861Y-62420241D01*
X176210655Y-62416063D01*
X175832610Y-62340060D01*
X175515443Y-62190605D01*
X175511101Y-62187720D01*
X175324982Y-62024993D01*
X175224293Y-61829696D01*
X175209006Y-61699933D01*
X175311492Y-61699933D01*
X175399195Y-61893974D01*
X175591451Y-62073765D01*
X175804802Y-62187765D01*
X176142275Y-62274834D01*
X176531885Y-62292547D01*
X176959556Y-62242785D01*
X177411209Y-62127432D01*
X177872766Y-61948371D01*
X178330151Y-61707485D01*
X178533992Y-61573626D01*
X178868532Y-61304090D01*
X179224762Y-60955206D01*
X179236350Y-60942975D01*
X179424926Y-60740932D01*
X179594521Y-60554027D01*
X179726961Y-60402597D01*
X179804073Y-60306977D01*
X179910849Y-60157025D01*
X179277852Y-60157025D01*
X179034644Y-60159731D01*
X178528201Y-60180982D01*
X178033666Y-60220989D01*
X177582182Y-60276912D01*
X177204892Y-60345915D01*
X177127191Y-60365734D01*
X176866227Y-60453620D01*
X176568760Y-60577248D01*
X176262256Y-60723039D01*
X175974182Y-60877413D01*
X175732005Y-61026790D01*
X175563191Y-61157590D01*
X175450074Y-61279840D01*
X175328424Y-61494326D01*
X175311492Y-61699933D01*
X175209006Y-61699933D01*
X175194059Y-61573050D01*
X175194065Y-61568219D01*
X175203231Y-61445266D01*
X175241366Y-61343515D01*
X175325586Y-61232926D01*
X175473006Y-61083457D01*
X175707534Y-60891851D01*
X176038789Y-60683375D01*
X176419005Y-60490920D01*
X176818801Y-60329219D01*
X177208796Y-60213005D01*
X177378524Y-60177545D01*
X177744277Y-60119926D01*
X178171581Y-60070595D01*
X178632258Y-60032147D01*
X179098130Y-60007175D01*
X179277852Y-60003563D01*
X179541017Y-59998275D01*
X180062606Y-59998274D01*
X180425560Y-59508795D01*
X180529093Y-59367438D01*
X180718453Y-59102109D01*
X180900078Y-58840341D01*
X181045762Y-58622441D01*
X181079577Y-58569910D01*
X181214950Y-58354360D01*
X181367297Y-58105354D01*
X181527601Y-57838364D01*
X181686843Y-57568863D01*
X181836007Y-57312322D01*
X181966076Y-57084213D01*
X182068031Y-56900007D01*
X182132856Y-56775177D01*
X182151533Y-56725193D01*
X182148465Y-56723707D01*
X182074291Y-56709297D01*
X181915665Y-56685702D01*
X181690081Y-56655071D01*
X181415034Y-56619557D01*
X181108017Y-56581311D01*
X181092202Y-56579401D01*
X182448611Y-56579401D01*
X182473731Y-56587518D01*
X182591024Y-56605136D01*
X182787507Y-56626200D01*
X183046400Y-56649417D01*
X183350921Y-56673489D01*
X183684289Y-56697122D01*
X184029723Y-56719020D01*
X184370442Y-56737887D01*
X184689663Y-56752427D01*
X184806235Y-56756834D01*
X185132148Y-56765720D01*
X185385560Y-56764944D01*
X185591831Y-56753318D01*
X185776319Y-56729657D01*
X185964382Y-56692774D01*
X186062774Y-56670015D01*
X186419490Y-56563786D01*
X186688341Y-56435859D01*
X186883350Y-56278117D01*
X187018535Y-56082441D01*
X187023116Y-56073278D01*
X187103887Y-55833028D01*
X187110661Y-55577427D01*
X187040578Y-55294701D01*
X186890774Y-54973075D01*
X186658388Y-54600775D01*
X186563180Y-54473280D01*
X186371794Y-54253140D01*
X186149401Y-54027279D01*
X185919804Y-53818161D01*
X185706810Y-53648246D01*
X185534221Y-53539999D01*
X185485233Y-53516736D01*
X185340467Y-53462174D01*
X185213714Y-53454421D01*
X185047666Y-53487265D01*
X184779541Y-53579152D01*
X184500063Y-53736927D01*
X184221039Y-53964733D01*
X183930495Y-54272464D01*
X183616460Y-54670014D01*
X183523570Y-54801317D01*
X183391150Y-54999269D01*
X183239626Y-55233665D01*
X183078575Y-55488843D01*
X182917577Y-55749145D01*
X182766210Y-55998910D01*
X182634052Y-56222478D01*
X182530680Y-56404189D01*
X182465674Y-56528383D01*
X182448611Y-56579401D01*
X181092202Y-56579401D01*
X180786523Y-56542484D01*
X180468048Y-56505228D01*
X180170084Y-56471694D01*
X179910126Y-56444033D01*
X179705667Y-56424398D01*
X179277010Y-56387005D01*
X178518763Y-57148377D01*
X178109302Y-57548342D01*
X177632938Y-57992421D01*
X177126725Y-58446028D01*
X176607702Y-58894707D01*
X176092906Y-59324000D01*
X175599377Y-59719451D01*
X175144151Y-60066602D01*
X174744267Y-60350998D01*
X174650594Y-60412944D01*
X174226910Y-60660610D01*
X173791394Y-60867755D01*
X173365897Y-61025989D01*
X172972270Y-61126916D01*
X172632365Y-61162146D01*
X172394134Y-61141919D01*
X172091858Y-61050793D01*
X171843667Y-60896054D01*
X171665205Y-60688377D01*
X171572111Y-60438440D01*
X171563775Y-60375136D01*
X171566545Y-60321193D01*
X171708678Y-60321193D01*
X171765119Y-60583852D01*
X171896017Y-60790146D01*
X172097893Y-60927500D01*
X172109575Y-60932216D01*
X172335447Y-60984927D01*
X172624213Y-61000343D01*
X172942007Y-60978678D01*
X173254962Y-60920149D01*
X173357260Y-60891365D01*
X173754919Y-60739032D01*
X174202770Y-60508797D01*
X174702426Y-60199481D01*
X175255497Y-59809907D01*
X175863595Y-59338897D01*
X176528330Y-58785270D01*
X177251316Y-58147851D01*
X178034162Y-57425460D01*
X178221194Y-57247556D01*
X178450162Y-57024601D01*
X178651525Y-56822940D01*
X178808550Y-56659388D01*
X178904505Y-56550763D01*
X179077869Y-56331873D01*
X177916485Y-56361187D01*
X177668635Y-56368333D01*
X177156691Y-56391008D01*
X176723567Y-56424199D01*
X176350497Y-56470545D01*
X176018716Y-56532691D01*
X175709456Y-56613278D01*
X175403953Y-56714948D01*
X175056814Y-56856239D01*
X174565231Y-57096974D01*
X174066272Y-57381784D01*
X173587528Y-57693555D01*
X173156589Y-58015172D01*
X172801046Y-58329521D01*
X172740224Y-58391218D01*
X172500578Y-58662017D01*
X172267585Y-58964267D01*
X172059028Y-59272163D01*
X171892692Y-59559903D01*
X171786361Y-59801686D01*
X171730175Y-60014745D01*
X171708678Y-60321193D01*
X171566545Y-60321193D01*
X171580197Y-60055320D01*
X171681588Y-59701606D01*
X171860067Y-59325238D01*
X172107756Y-58937463D01*
X172416775Y-58549524D01*
X172779244Y-58172668D01*
X173187285Y-57818139D01*
X173633017Y-57497183D01*
X173954371Y-57292475D01*
X174452366Y-56998121D01*
X174915161Y-56760872D01*
X175362717Y-56574952D01*
X175814990Y-56434586D01*
X176291941Y-56334000D01*
X176813527Y-56267417D01*
X177399707Y-56229062D01*
X178070439Y-56213161D01*
X179077869Y-56203922D01*
X179227028Y-56202554D01*
X179701715Y-55679477D01*
X180038556Y-55298935D01*
X180386991Y-54887300D01*
X180721825Y-54474721D01*
X181027903Y-54080295D01*
X181290067Y-53723117D01*
X181493163Y-53422284D01*
X181580986Y-53286234D01*
X181693881Y-53120146D01*
X181778735Y-53006015D01*
X181821871Y-52962953D01*
X181837656Y-52964432D01*
G37*
G36*
X186698838Y-80230938D02*
G01*
X186708006Y-80310243D01*
X186710051Y-80457488D01*
X186705804Y-80685272D01*
X186696098Y-81006191D01*
X186689312Y-81177371D01*
X186670964Y-81493045D01*
X186647201Y-81780876D01*
X186620334Y-82014872D01*
X186592676Y-82169039D01*
X186588674Y-82184789D01*
X186543108Y-82390596D01*
X186495134Y-82644996D01*
X186454502Y-82896643D01*
X186442972Y-82971272D01*
X186406924Y-83156832D01*
X186370701Y-83286040D01*
X186340640Y-83334525D01*
X186325649Y-83331406D01*
X186237172Y-83285508D01*
X186116647Y-83202233D01*
X186079868Y-83175341D01*
X185956182Y-83100148D01*
X185870412Y-83069941D01*
X185807422Y-83055563D01*
X185698180Y-82997229D01*
X185644628Y-82955262D01*
X185632887Y-82911434D01*
X185709128Y-82855578D01*
X185732189Y-82840505D01*
X185788254Y-82774475D01*
X185759267Y-82690166D01*
X185699408Y-82613602D01*
X185643493Y-82610725D01*
X185600065Y-82711933D01*
X185580474Y-82771074D01*
X185547866Y-82787258D01*
X185483404Y-82743178D01*
X185365664Y-82631481D01*
X185281380Y-82555223D01*
X185180054Y-82482525D01*
X185125621Y-82469351D01*
X185125051Y-82469895D01*
X185064104Y-82463390D01*
X184970204Y-82398925D01*
X184924115Y-82358290D01*
X184797540Y-82260799D01*
X184733091Y-82238750D01*
X184734864Y-82293969D01*
X184744104Y-82343162D01*
X184708844Y-82382025D01*
X184684495Y-82376691D01*
X184582954Y-82332283D01*
X184438380Y-82256079D01*
X184278197Y-82164131D01*
X184129828Y-82072492D01*
X184020697Y-81997215D01*
X183978226Y-81954352D01*
X183981058Y-81948186D01*
X184042551Y-81894947D01*
X184167941Y-81807390D01*
X184335413Y-81700989D01*
X184436531Y-81639719D01*
X184576599Y-81560107D01*
X184656172Y-81529018D01*
X184694215Y-81540821D01*
X184709692Y-81589888D01*
X184719045Y-81633013D01*
X184747101Y-81657709D01*
X184811448Y-81626064D01*
X184934553Y-81532327D01*
X184983739Y-81493907D01*
X185088382Y-81422364D01*
X185144847Y-81411997D01*
X185175999Y-81455531D01*
X185189453Y-81480426D01*
X185231986Y-81489919D01*
X185309922Y-81438360D01*
X185440618Y-81316641D01*
X185550472Y-81215055D01*
X185638366Y-81147403D01*
X185672369Y-81140694D01*
X185677671Y-81171118D01*
X185719922Y-81265218D01*
X185724467Y-81271184D01*
X185794440Y-81278795D01*
X185906741Y-81218721D01*
X186043626Y-81107100D01*
X186187356Y-80960072D01*
X186320188Y-80793778D01*
X186424381Y-80624357D01*
X186487638Y-80503813D01*
X186577743Y-80344426D01*
X186645403Y-80238900D01*
X186655801Y-80225764D01*
X186681713Y-80206978D01*
X186698838Y-80230938D01*
G37*
G36*
X186696186Y-82030185D02*
G01*
X186698512Y-82101817D01*
X186700737Y-82271104D01*
X186702841Y-82531334D01*
X186704805Y-82875795D01*
X186706608Y-83297776D01*
X186708231Y-83790563D01*
X186709653Y-84347445D01*
X186710854Y-84961710D01*
X186711815Y-85626646D01*
X186712514Y-86335541D01*
X186712933Y-87081682D01*
X186713052Y-87858357D01*
X186713038Y-88027088D01*
X186712825Y-88798259D01*
X186712382Y-89537729D01*
X186711724Y-90238757D01*
X186710869Y-90894605D01*
X186709833Y-91498534D01*
X186708631Y-92043803D01*
X186707280Y-92523675D01*
X186705797Y-92931410D01*
X186704198Y-93260268D01*
X186702499Y-93503510D01*
X186700717Y-93654398D01*
X186698868Y-93706191D01*
X186697180Y-93705060D01*
X186662441Y-93648874D01*
X186595481Y-93524828D01*
X186508994Y-93356309D01*
X186499037Y-93336714D01*
X186402751Y-93165035D01*
X186314987Y-93036304D01*
X186253642Y-92977101D01*
X186218145Y-92959670D01*
X186104731Y-92887330D01*
X185967159Y-92786503D01*
X185897621Y-92733348D01*
X185801297Y-92671633D01*
X185745530Y-92667901D01*
X185703509Y-92714869D01*
X185673614Y-92750852D01*
X185625504Y-92755168D01*
X185547711Y-92701825D01*
X185419086Y-92580859D01*
X185382998Y-92545850D01*
X185262104Y-92440341D01*
X185188505Y-92405061D01*
X185145642Y-92430932D01*
X185133491Y-92448669D01*
X185088912Y-92464603D01*
X185029132Y-92391047D01*
X184972520Y-92314216D01*
X184907942Y-92283814D01*
X184868460Y-92356168D01*
X184859211Y-92374885D01*
X184806383Y-92378625D01*
X184697597Y-92327532D01*
X184519336Y-92216188D01*
X184187321Y-91997481D01*
X184466419Y-91822103D01*
X184597360Y-91739951D01*
X184744584Y-91647900D01*
X184838121Y-91589805D01*
X184863054Y-91575384D01*
X184917887Y-91569469D01*
X184930726Y-91651597D01*
X184935859Y-91704738D01*
X184964297Y-91716238D01*
X185032695Y-91666399D01*
X185157624Y-91547626D01*
X185170725Y-91534796D01*
X185315830Y-91399754D01*
X185404128Y-91338054D01*
X185448017Y-91344156D01*
X185459892Y-91412518D01*
X185462452Y-91454626D01*
X185488760Y-91466702D01*
X185564478Y-91405445D01*
X185571719Y-91398712D01*
X185634197Y-91307368D01*
X185625068Y-91241954D01*
X185547151Y-91230886D01*
X185541343Y-91231710D01*
X185454269Y-91205167D01*
X185339906Y-91132408D01*
X185196170Y-91019345D01*
X185394177Y-90868056D01*
X185458046Y-90821777D01*
X185572513Y-90752488D01*
X185638494Y-90732020D01*
X185697769Y-90717578D01*
X185793111Y-90652461D01*
X185795004Y-90650809D01*
X185858641Y-90604769D01*
X185862740Y-90623795D01*
X185845207Y-90668326D01*
X185875183Y-90687581D01*
X185960302Y-90649513D01*
X186083488Y-90559125D01*
X186114186Y-90534471D01*
X186215206Y-90470824D01*
X186272757Y-90462111D01*
X186296799Y-90501057D01*
X186297298Y-90617660D01*
X186232454Y-90738691D01*
X186174866Y-90821900D01*
X186109692Y-90947260D01*
X186055545Y-91076767D01*
X186025778Y-91178143D01*
X186033740Y-91219108D01*
X186048315Y-91209862D01*
X186097236Y-91130844D01*
X186153871Y-90997366D01*
X186218575Y-90848603D01*
X186290399Y-90767362D01*
X186361361Y-90788669D01*
X186436452Y-90911000D01*
X186516863Y-91086816D01*
X186484109Y-90901608D01*
X186465647Y-90818570D01*
X186417396Y-90637700D01*
X186350686Y-90408344D01*
X186274098Y-90160775D01*
X186215086Y-89971810D01*
X186153660Y-89764668D01*
X186111657Y-89610205D01*
X186095866Y-89532358D01*
X186092033Y-89518011D01*
X186034012Y-89433498D01*
X185920795Y-89307619D01*
X185771224Y-89161875D01*
X185661425Y-89059561D01*
X185543040Y-88937672D01*
X185477246Y-88839923D01*
X185447354Y-88738574D01*
X185436672Y-88605889D01*
X185432607Y-88530244D01*
X185410887Y-88400384D01*
X185355325Y-88320537D01*
X185244403Y-88250986D01*
X185131001Y-88197624D01*
X185009955Y-88164711D01*
X184865255Y-88156689D01*
X184670210Y-88172268D01*
X184398132Y-88210163D01*
X184378471Y-88213174D01*
X184175195Y-88249084D01*
X184048056Y-88287389D01*
X183969937Y-88339703D01*
X183913720Y-88417640D01*
X183808399Y-88556710D01*
X183595108Y-88698531D01*
X183323206Y-88755233D01*
X183285453Y-88757545D01*
X183085209Y-88805733D01*
X182895288Y-88928372D01*
X182645315Y-89085119D01*
X182323376Y-89184326D01*
X181993094Y-89189917D01*
X181858165Y-89180785D01*
X181763899Y-89207444D01*
X181765672Y-89275979D01*
X181864975Y-89384130D01*
X181877773Y-89396193D01*
X181931790Y-89480277D01*
X181955899Y-89570351D01*
X181945703Y-89632200D01*
X181896799Y-89631608D01*
X181862069Y-89633696D01*
X181802291Y-89697754D01*
X181776795Y-89732359D01*
X181662235Y-89785010D01*
X181510882Y-89761287D01*
X181348048Y-89663120D01*
X181246689Y-89594362D01*
X181048936Y-89526211D01*
X180855435Y-89527690D01*
X180700802Y-89602064D01*
X180676776Y-89622706D01*
X180586113Y-89672007D01*
X180551653Y-89639905D01*
X180586924Y-89534435D01*
X180611466Y-89478428D01*
X180593231Y-89427414D01*
X180489454Y-89394302D01*
X180486547Y-89393483D01*
X180697392Y-89393483D01*
X180723851Y-89419941D01*
X180750309Y-89393483D01*
X180723851Y-89367025D01*
X180697392Y-89393483D01*
X180486547Y-89393483D01*
X180395631Y-89367873D01*
X180123487Y-89225398D01*
X180018740Y-89128900D01*
X181067809Y-89128900D01*
X181094267Y-89155358D01*
X181120726Y-89128900D01*
X181094267Y-89102441D01*
X181067809Y-89128900D01*
X180018740Y-89128900D01*
X179882108Y-89003029D01*
X179694424Y-88720208D01*
X179617526Y-88549021D01*
X179556582Y-88375807D01*
X179533226Y-88255733D01*
X179538166Y-88172852D01*
X179592612Y-87921193D01*
X179692700Y-87661647D01*
X179820243Y-87445546D01*
X179907341Y-87338998D01*
X179998786Y-87251884D01*
X180041199Y-87244143D01*
X180026404Y-87314681D01*
X179946227Y-87462405D01*
X179877814Y-87581946D01*
X179805734Y-87775037D01*
X179785597Y-87986450D01*
X179787497Y-88046612D01*
X179855980Y-88349505D01*
X180011801Y-88617253D01*
X180239949Y-88829948D01*
X180525413Y-88967682D01*
X180613646Y-88978642D01*
X180644476Y-88927278D01*
X180656459Y-88877032D01*
X180723731Y-88785041D01*
X180723851Y-88784935D01*
X180736595Y-88773725D01*
X180764849Y-88722298D01*
X180735774Y-88651496D01*
X180640269Y-88533940D01*
X180596052Y-88480085D01*
X180527399Y-88367394D01*
X180524666Y-88301500D01*
X180533517Y-88294496D01*
X180627089Y-88284337D01*
X180757127Y-88321224D01*
X180883239Y-88389412D01*
X180965034Y-88473156D01*
X180973917Y-88489561D01*
X181013878Y-88540968D01*
X181067934Y-88532134D01*
X181094267Y-88513966D01*
X181171043Y-88460996D01*
X181241316Y-88416067D01*
X181414859Y-88328606D01*
X181605664Y-88252698D01*
X181888017Y-88156976D01*
X181872335Y-87820915D01*
X184282148Y-87820915D01*
X184359524Y-87845992D01*
X184528816Y-87883189D01*
X184665423Y-87906285D01*
X184874781Y-87923925D01*
X185038575Y-87917632D01*
X185050260Y-87915824D01*
X185208772Y-87912454D01*
X185301443Y-87965095D01*
X185304858Y-87969149D01*
X185403018Y-88038858D01*
X185481019Y-88019179D01*
X185512809Y-87916144D01*
X185518416Y-87824751D01*
X185540657Y-87715610D01*
X185540401Y-87665083D01*
X185469558Y-87600036D01*
X185335508Y-87553556D01*
X185163604Y-87528639D01*
X184979201Y-87528281D01*
X184807652Y-87555479D01*
X184674311Y-87613229D01*
X184540311Y-87692131D01*
X184375101Y-87764357D01*
X184356070Y-87770725D01*
X184284920Y-87798858D01*
X184282148Y-87820915D01*
X181872335Y-87820915D01*
X181869364Y-87757260D01*
X181868657Y-87741901D01*
X181863909Y-87528852D01*
X181878068Y-87379410D01*
X181915478Y-87264220D01*
X184189892Y-87264220D01*
X184197768Y-87278691D01*
X184282547Y-87296875D01*
X184447242Y-87287537D01*
X184515555Y-87281228D01*
X184672740Y-87283622D01*
X184760210Y-87312676D01*
X184783488Y-87328049D01*
X184892909Y-87336909D01*
X184979201Y-87320062D01*
X185083392Y-87299720D01*
X185175381Y-87277126D01*
X185301914Y-87257154D01*
X185383434Y-87272971D01*
X185457237Y-87327330D01*
X185503337Y-87368891D01*
X185538884Y-87388748D01*
X185567497Y-87371883D01*
X185594532Y-87304851D01*
X185625343Y-87174203D01*
X185665288Y-86966494D01*
X185719720Y-86668275D01*
X185760033Y-86441082D01*
X185796648Y-86221272D01*
X185821437Y-86056484D01*
X185830509Y-85971207D01*
X185795775Y-85904721D01*
X185688104Y-85806146D01*
X185534467Y-85699680D01*
X185362562Y-85602440D01*
X185200083Y-85531544D01*
X185074727Y-85504108D01*
X185027409Y-85509463D01*
X184866115Y-85571293D01*
X184681816Y-85689316D01*
X184574937Y-85766170D01*
X184447724Y-85844267D01*
X184370614Y-85874525D01*
X184349934Y-85875616D01*
X184281095Y-85916133D01*
X184265451Y-86024748D01*
X184300277Y-86214637D01*
X184314082Y-86274507D01*
X184332535Y-86430158D01*
X184320162Y-86602149D01*
X184275264Y-86832384D01*
X184270888Y-86851834D01*
X184229915Y-87041471D01*
X184200904Y-87189112D01*
X184189892Y-87264220D01*
X181915478Y-87264220D01*
X181918726Y-87254220D01*
X181993477Y-87113930D01*
X181994461Y-87112251D01*
X182053417Y-87007620D01*
X182091997Y-86916974D01*
X182112997Y-86816390D01*
X182119214Y-86681940D01*
X182113446Y-86489701D01*
X182098490Y-86215747D01*
X182084511Y-85959996D01*
X182078078Y-85761485D01*
X182078807Y-85742233D01*
X183925309Y-85742233D01*
X183951767Y-85768691D01*
X183978226Y-85742233D01*
X183951767Y-85715775D01*
X183925309Y-85742233D01*
X182078807Y-85742233D01*
X182081814Y-85662858D01*
X184122838Y-85662858D01*
X184123397Y-85662841D01*
X184184048Y-85627487D01*
X184295756Y-85537327D01*
X184434768Y-85411504D01*
X184462249Y-85385330D01*
X184559827Y-85289524D01*
X184596446Y-85247919D01*
X184563909Y-85269529D01*
X184543421Y-85286022D01*
X184401706Y-85400182D01*
X184251978Y-85520883D01*
X184203216Y-85561822D01*
X184130200Y-85634200D01*
X184122838Y-85662858D01*
X182081814Y-85662858D01*
X182083313Y-85623272D01*
X182102800Y-85521735D01*
X182139119Y-85433254D01*
X182194854Y-85334205D01*
X182257718Y-85241317D01*
X182407991Y-85062835D01*
X182410684Y-85060255D01*
X184777065Y-85060255D01*
X184821435Y-85056453D01*
X184881408Y-85058557D01*
X185008258Y-85111305D01*
X185074727Y-85150624D01*
X185171444Y-85207837D01*
X185317413Y-85296443D01*
X185467421Y-85370018D01*
X185566572Y-85398275D01*
X185633601Y-85412452D01*
X185705339Y-85477650D01*
X185733578Y-85517720D01*
X185829207Y-85557025D01*
X185864980Y-85550300D01*
X185920836Y-85484328D01*
X185958368Y-85332129D01*
X185965879Y-85286052D01*
X185995574Y-85120148D01*
X186020861Y-84999818D01*
X186026671Y-84955212D01*
X185989645Y-84886293D01*
X185869053Y-84827839D01*
X185721966Y-84788895D01*
X185485190Y-84768427D01*
X185246146Y-84786838D01*
X185031410Y-84839271D01*
X184867556Y-84920866D01*
X184781160Y-85026763D01*
X184777065Y-85060255D01*
X182410684Y-85060255D01*
X182571828Y-84905900D01*
X182653063Y-84836804D01*
X182748397Y-84740450D01*
X182779142Y-84669781D01*
X182759593Y-84601630D01*
X182707475Y-84541324D01*
X182600530Y-84498691D01*
X182540814Y-84489367D01*
X182496559Y-84447636D01*
X182499882Y-84429231D01*
X182568597Y-84360194D01*
X182700509Y-84307808D01*
X182861635Y-84287025D01*
X183008370Y-84327571D01*
X183105084Y-84439151D01*
X183120549Y-84594069D01*
X183131282Y-84643574D01*
X183195945Y-84689133D01*
X183331214Y-84738665D01*
X183553766Y-84800100D01*
X183656608Y-84825245D01*
X183951767Y-84874382D01*
X183957723Y-84875374D01*
X184194115Y-84867494D01*
X184385892Y-84798926D01*
X184553163Y-84666993D01*
X184591192Y-84630054D01*
X184596446Y-84626247D01*
X184669840Y-84573061D01*
X184768952Y-84539091D01*
X184916984Y-84520555D01*
X185142392Y-84509864D01*
X185183625Y-84508470D01*
X185479592Y-84499331D01*
X185485190Y-84499234D01*
X185689431Y-84495707D01*
X185830691Y-84498482D01*
X185920918Y-84508542D01*
X185977660Y-84526771D01*
X186018466Y-84554055D01*
X186080069Y-84588562D01*
X186117659Y-84544338D01*
X186164360Y-84390037D01*
X186232932Y-84136340D01*
X186310306Y-83829806D01*
X186389922Y-83497872D01*
X186465223Y-83167975D01*
X186529650Y-82867555D01*
X186576645Y-82624049D01*
X186612952Y-82422126D01*
X186650953Y-82222881D01*
X186679979Y-82084289D01*
X186695667Y-82028194D01*
X186696186Y-82030185D01*
G37*
G36*
X175962473Y-47547117D02*
G01*
X176039428Y-47669863D01*
X176121576Y-47858853D01*
X176201324Y-48093877D01*
X176271075Y-48354727D01*
X176323236Y-48621191D01*
X176323537Y-48623124D01*
X176350421Y-48857246D01*
X176339344Y-49025224D01*
X176282539Y-49162120D01*
X176172243Y-49302997D01*
X176143986Y-49334589D01*
X176054793Y-49445800D01*
X176032882Y-49508158D01*
X176069953Y-49540973D01*
X176121406Y-49587079D01*
X176136874Y-49717937D01*
X176112295Y-49795739D01*
X176011446Y-49899025D01*
X175870923Y-49942456D01*
X175730009Y-49907708D01*
X175724350Y-49904229D01*
X175640560Y-49881431D01*
X175573386Y-49949504D01*
X175483123Y-50023835D01*
X175312173Y-50049941D01*
X175308988Y-50049946D01*
X175143605Y-50075017D01*
X175047589Y-50155775D01*
X174989331Y-50217070D01*
X174853223Y-50261802D01*
X174702094Y-50234097D01*
X174573420Y-50135554D01*
X174509665Y-50063273D01*
X174438697Y-50039727D01*
X174331454Y-50084328D01*
X174238461Y-50155409D01*
X174189042Y-50276527D01*
X174192195Y-50355554D01*
X174224672Y-50616511D01*
X174289631Y-50954249D01*
X174383765Y-51352799D01*
X174384142Y-51354192D01*
X174503768Y-51796191D01*
X174513318Y-51829607D01*
X174644433Y-52305650D01*
X174742238Y-52702661D01*
X174810036Y-53039620D01*
X174851130Y-53335508D01*
X174868824Y-53609305D01*
X174866421Y-53879991D01*
X174847663Y-54115117D01*
X174778117Y-54474633D01*
X174653202Y-54831229D01*
X174465409Y-55201259D01*
X174207226Y-55601077D01*
X173871142Y-56047036D01*
X173527184Y-56479316D01*
X173511314Y-56175045D01*
X173501839Y-56042964D01*
X173485949Y-55918742D01*
X173469518Y-55870775D01*
X173454738Y-55874736D01*
X173367621Y-55912275D01*
X173236142Y-55976608D01*
X173179087Y-56005209D01*
X173061315Y-56060487D01*
X173002132Y-56082441D01*
X173000271Y-56075265D01*
X173021952Y-55998768D01*
X173075219Y-55856362D01*
X173151999Y-55670248D01*
X173288102Y-55291235D01*
X173516371Y-55291235D01*
X173528207Y-55404401D01*
X173585776Y-55474258D01*
X173666522Y-55469545D01*
X173681677Y-55464658D01*
X173738317Y-55499495D01*
X173745362Y-55509562D01*
X173835123Y-55552285D01*
X173950992Y-55524978D01*
X174053350Y-55435667D01*
X174101415Y-55363375D01*
X174125320Y-55288351D01*
X174072943Y-55239729D01*
X173931149Y-55191234D01*
X173771524Y-55148711D01*
X173638077Y-55136465D01*
X173561912Y-55174828D01*
X173521030Y-55267913D01*
X173516371Y-55291235D01*
X173288102Y-55291235D01*
X173347239Y-55126555D01*
X173385189Y-54946706D01*
X173675157Y-54946706D01*
X173744541Y-54994782D01*
X173914092Y-55044645D01*
X173953517Y-55052548D01*
X174113919Y-55064497D01*
X174214102Y-55024936D01*
X174272253Y-54960989D01*
X174290585Y-54851296D01*
X174210136Y-54748834D01*
X174035225Y-54662359D01*
X173890479Y-54619178D01*
X173757001Y-54604979D01*
X173712392Y-54647409D01*
X173724246Y-54664894D01*
X173809694Y-54709455D01*
X173950517Y-54754004D01*
X174040924Y-54779926D01*
X174163636Y-54836124D01*
X174183464Y-54882792D01*
X174102335Y-54909578D01*
X173922178Y-54906136D01*
X173834291Y-54900504D01*
X173705291Y-54911565D01*
X173675157Y-54946706D01*
X173385189Y-54946706D01*
X173469770Y-54545861D01*
X173483441Y-54249308D01*
X173787481Y-54249308D01*
X173850460Y-54288382D01*
X173979314Y-54318509D01*
X174153159Y-54332472D01*
X174202741Y-54333606D01*
X174306020Y-54346304D01*
X174336875Y-54391810D01*
X174320934Y-54494941D01*
X174312296Y-54554109D01*
X174326114Y-54639678D01*
X174369056Y-54649970D01*
X174421106Y-54569988D01*
X174439281Y-54501304D01*
X174453226Y-54365607D01*
X174449566Y-54319160D01*
X174416437Y-54266943D01*
X174327795Y-54235060D01*
X174158567Y-54210298D01*
X174035844Y-54199514D01*
X173887015Y-54197787D01*
X173804892Y-54212140D01*
X173787481Y-54249308D01*
X173483441Y-54249308D01*
X173495444Y-53988938D01*
X173484495Y-53909058D01*
X173818226Y-53909058D01*
X173827160Y-53966874D01*
X173879150Y-54031672D01*
X173887015Y-54031349D01*
X173945053Y-54028963D01*
X173986908Y-53949619D01*
X173989624Y-53934630D01*
X174050313Y-53841435D01*
X174154410Y-53810654D01*
X174269231Y-53835966D01*
X174362092Y-53911049D01*
X174400309Y-54029580D01*
X174412513Y-54087327D01*
X174466455Y-54111560D01*
X174489823Y-54100417D01*
X174541897Y-54016352D01*
X174533414Y-53899047D01*
X174464617Y-53790876D01*
X174443161Y-53773414D01*
X174302142Y-53713057D01*
X174137655Y-53702200D01*
X173981184Y-53735085D01*
X173864212Y-53805956D01*
X173818226Y-53909058D01*
X173484495Y-53909058D01*
X173423366Y-53463066D01*
X173401666Y-53382035D01*
X173329598Y-53159054D01*
X173259747Y-52969555D01*
X173619438Y-52969555D01*
X173638077Y-52988377D01*
X173671943Y-53022576D01*
X173757001Y-53047915D01*
X173787236Y-53056922D01*
X173875572Y-53070761D01*
X173899217Y-53102151D01*
X173840806Y-53176309D01*
X173805671Y-53219878D01*
X173777804Y-53296892D01*
X173827572Y-53315141D01*
X173940941Y-53262540D01*
X174071350Y-53210206D01*
X174137655Y-53209965D01*
X174286551Y-53209423D01*
X174337736Y-53215035D01*
X174459227Y-53213995D01*
X174506142Y-53187811D01*
X174505733Y-53176550D01*
X174454470Y-53093447D01*
X174315237Y-53066191D01*
X174288885Y-53065524D01*
X174185622Y-53037944D01*
X174177466Y-52982442D01*
X174269676Y-52916314D01*
X174292022Y-52904839D01*
X174370457Y-52835923D01*
X174403112Y-52763035D01*
X174384142Y-52715769D01*
X174307705Y-52723718D01*
X174161359Y-52783440D01*
X173898982Y-52873267D01*
X173721212Y-52905119D01*
X173640372Y-52922346D01*
X173619438Y-52969555D01*
X173259747Y-52969555D01*
X173234288Y-52900488D01*
X173130441Y-52647296D01*
X173122763Y-52628758D01*
X173456794Y-52628758D01*
X173489137Y-52714339D01*
X173588885Y-52748691D01*
X173630891Y-52737763D01*
X173640895Y-52670764D01*
X173640427Y-52601134D01*
X173709253Y-52520838D01*
X173828881Y-52463476D01*
X173967957Y-52437948D01*
X174095130Y-52453154D01*
X174179045Y-52517996D01*
X174216778Y-52560346D01*
X174287508Y-52567789D01*
X174322094Y-52541400D01*
X174340607Y-52475907D01*
X174290237Y-52365045D01*
X174283538Y-52355040D01*
X174181005Y-52293982D01*
X174019491Y-52272480D01*
X173834265Y-52291307D01*
X173660598Y-52351236D01*
X173575402Y-52408761D01*
X173487125Y-52518161D01*
X173456794Y-52628758D01*
X173122763Y-52628758D01*
X173021990Y-52385437D01*
X172906289Y-52044865D01*
X173315517Y-52044865D01*
X173325580Y-52091709D01*
X173373758Y-52121354D01*
X173482595Y-52132924D01*
X173674556Y-52131863D01*
X173860316Y-52119515D01*
X174019491Y-52093486D01*
X174020829Y-52093267D01*
X174111118Y-52059238D01*
X174112665Y-52057949D01*
X174183455Y-51970710D01*
X174162310Y-51920107D01*
X174056351Y-51923754D01*
X174038623Y-51927969D01*
X173948633Y-51929535D01*
X173924059Y-51869179D01*
X173940885Y-51806553D01*
X174016580Y-51713747D01*
X174064769Y-51663183D01*
X174067746Y-51604739D01*
X174033293Y-51597184D01*
X173925840Y-51627482D01*
X173777718Y-51696451D01*
X173615777Y-51788383D01*
X173466865Y-51887568D01*
X173357829Y-51978299D01*
X173315517Y-52044865D01*
X172906289Y-52044865D01*
X172873636Y-51948749D01*
X172788419Y-51555190D01*
X172760674Y-51182317D01*
X172762193Y-51030393D01*
X173077392Y-51030393D01*
X173093503Y-51076439D01*
X173187651Y-51137578D01*
X173340642Y-51161191D01*
X173410712Y-51172544D01*
X173466186Y-51231601D01*
X173442648Y-51316762D01*
X173340155Y-51400258D01*
X173243982Y-51459713D01*
X173185195Y-51539798D01*
X173229397Y-51606814D01*
X173231680Y-51607919D01*
X173308095Y-51604037D01*
X173452671Y-51571697D01*
X173636162Y-51517333D01*
X173650613Y-51512556D01*
X173828691Y-51445427D01*
X173960251Y-51381198D01*
X174017733Y-51333170D01*
X174021306Y-51320885D01*
X174016683Y-51276172D01*
X173954907Y-51260093D01*
X173812018Y-51264669D01*
X173713170Y-51250200D01*
X173643585Y-51182060D01*
X173651253Y-51090115D01*
X173745262Y-51009148D01*
X173798708Y-50974248D01*
X173859655Y-50896152D01*
X173875250Y-50823083D01*
X173831455Y-50790636D01*
X173736207Y-50801053D01*
X173579862Y-50835819D01*
X173405497Y-50885774D01*
X173243424Y-50941280D01*
X173123952Y-50992698D01*
X173077392Y-51030393D01*
X172762193Y-51030393D01*
X172762669Y-50982724D01*
X172779249Y-50815472D01*
X172824469Y-50688559D01*
X172912324Y-50586231D01*
X173056805Y-50492729D01*
X173271906Y-50392299D01*
X173571619Y-50269185D01*
X173831455Y-50164475D01*
X174033293Y-50083137D01*
X174275030Y-49985720D01*
X174237828Y-49948518D01*
X174638434Y-49948518D01*
X174646136Y-50061806D01*
X174691237Y-50122833D01*
X174803658Y-50145394D01*
X174933973Y-50134290D01*
X175005398Y-50081338D01*
X174998653Y-50009797D01*
X174902006Y-49943724D01*
X174815028Y-49889164D01*
X174770726Y-49808716D01*
X174769173Y-49802131D01*
X175101897Y-49802131D01*
X175190267Y-49914218D01*
X175264897Y-49963140D01*
X175401933Y-49971770D01*
X175468151Y-49931734D01*
X175510147Y-49847912D01*
X175491956Y-49768033D01*
X175411897Y-49732441D01*
X175344917Y-49710111D01*
X175302805Y-49648559D01*
X175680836Y-49648559D01*
X175687902Y-49700971D01*
X175731839Y-49793532D01*
X175833588Y-49827721D01*
X175936666Y-49819143D01*
X176037777Y-49762452D01*
X176062789Y-49727708D01*
X176059152Y-49675676D01*
X175967102Y-49628795D01*
X175877980Y-49575128D01*
X175829059Y-49462688D01*
X175828472Y-49432181D01*
X175809656Y-49380445D01*
X175746982Y-49417184D01*
X175696646Y-49495132D01*
X175680836Y-49648559D01*
X175302805Y-49648559D01*
X175278736Y-49613379D01*
X175274614Y-49600150D01*
X175511559Y-49600150D01*
X175538017Y-49626608D01*
X175564476Y-49600150D01*
X175538017Y-49573691D01*
X175511559Y-49600150D01*
X175274614Y-49600150D01*
X175258197Y-49547468D01*
X175227297Y-49527264D01*
X175166731Y-49597034D01*
X175108148Y-49690949D01*
X175101897Y-49802131D01*
X174769173Y-49802131D01*
X174761082Y-49767824D01*
X174704580Y-49745670D01*
X174698372Y-49748535D01*
X174655841Y-49820803D01*
X174638434Y-49948518D01*
X174237828Y-49948518D01*
X174126003Y-49836693D01*
X174109070Y-49818962D01*
X174014697Y-49682197D01*
X173976976Y-49555520D01*
X173976885Y-49547846D01*
X173968879Y-49497080D01*
X174082809Y-49497080D01*
X174104891Y-49599253D01*
X174183982Y-49736975D01*
X174292657Y-49846521D01*
X174401262Y-49891191D01*
X174488514Y-49852132D01*
X174569803Y-49746317D01*
X174635033Y-49651465D01*
X174704580Y-49601173D01*
X174721096Y-49589230D01*
X174793326Y-49584889D01*
X174823642Y-49649186D01*
X174840085Y-49713848D01*
X174900873Y-49728096D01*
X174987872Y-49669936D01*
X175081214Y-49547233D01*
X175160186Y-49441410D01*
X175227297Y-49390989D01*
X175252527Y-49372033D01*
X175324071Y-49369171D01*
X175352809Y-49441400D01*
X175359991Y-49481814D01*
X175418352Y-49518229D01*
X175515493Y-49485568D01*
X175538017Y-49466007D01*
X175627285Y-49388483D01*
X175635771Y-49378863D01*
X175754638Y-49277925D01*
X175809656Y-49271432D01*
X175843785Y-49267404D01*
X175893192Y-49348795D01*
X175895088Y-49357324D01*
X175920391Y-49396092D01*
X175976276Y-49370741D01*
X176082280Y-49273491D01*
X176141960Y-49213173D01*
X176226232Y-49110341D01*
X176245700Y-49035199D01*
X176211894Y-48959842D01*
X176191696Y-48933777D01*
X176048700Y-48841914D01*
X175839714Y-48795826D01*
X175583828Y-48790698D01*
X175300128Y-48821714D01*
X175007704Y-48884056D01*
X174725644Y-48972907D01*
X174473036Y-49083452D01*
X174268969Y-49210874D01*
X174132530Y-49350355D01*
X174082809Y-49497080D01*
X173968879Y-49497080D01*
X173949299Y-49372929D01*
X173879118Y-49131029D01*
X173775975Y-48845519D01*
X173649506Y-48539772D01*
X173509344Y-48237161D01*
X173365125Y-47961058D01*
X173226481Y-47734837D01*
X173174455Y-47654087D01*
X173124635Y-47547785D01*
X173140996Y-47510036D01*
X173204513Y-47541816D01*
X173307362Y-47662501D01*
X173430932Y-47861556D01*
X173568847Y-48126562D01*
X173714734Y-48445102D01*
X173862218Y-48804757D01*
X174004925Y-49193109D01*
X174020676Y-49214736D01*
X174087635Y-49204985D01*
X174213132Y-49121814D01*
X174354718Y-49030747D01*
X174622646Y-48908484D01*
X174932792Y-48808637D01*
X175258077Y-48736759D01*
X175571419Y-48698400D01*
X175583828Y-48698432D01*
X175845739Y-48699113D01*
X176053955Y-48744449D01*
X176171413Y-48789001D01*
X176236174Y-48794624D01*
X176252392Y-48754066D01*
X176251793Y-48733388D01*
X176227605Y-48566977D01*
X176175806Y-48346531D01*
X176107067Y-48109437D01*
X176032059Y-47893077D01*
X175961455Y-47734837D01*
X175916039Y-47648040D01*
X175879370Y-47543224D01*
X175905643Y-47509941D01*
X175962473Y-47547117D01*
G37*
G36*
X171872957Y-58729812D02*
G01*
X171913226Y-58781191D01*
X171911688Y-58793840D01*
X171860309Y-58834108D01*
X171847660Y-58832570D01*
X171807392Y-58781191D01*
X171808930Y-58768543D01*
X171860309Y-58728275D01*
X171872957Y-58729812D01*
G37*
G36*
X173712392Y-51914620D02*
G01*
X173700460Y-51960487D01*
X173625443Y-52029900D01*
X173537697Y-52050165D01*
X173528669Y-52015107D01*
X173606234Y-51928776D01*
X173650004Y-51890857D01*
X173700560Y-51866162D01*
X173712392Y-51914620D01*
G37*
G36*
X173971599Y-55289291D02*
G01*
X174006829Y-55315651D01*
X173973935Y-55400206D01*
X173921699Y-55467627D01*
X173860267Y-55457733D01*
X173831834Y-55400445D01*
X173862630Y-55323528D01*
X173955502Y-55288691D01*
X173971599Y-55289291D01*
G37*
G36*
X173730151Y-55244634D02*
G01*
X173753182Y-55298613D01*
X173700874Y-55368268D01*
X173637405Y-55377508D01*
X173606559Y-55319559D01*
X173617448Y-55278381D01*
X173690344Y-55235775D01*
X173730151Y-55244634D01*
G37*
%TD*%
M02*
