%TF.GenerationSoftware,KiCad,Pcbnew,10.0.3*%
%TF.CreationDate,2026-07-02T15:57:59-04:00*%
%TF.ProjectId,Devboard,44657662-6f61-4726-942e-6b696361645f,rev?*%
%TF.SameCoordinates,Original*%
%TF.FileFunction,Soldermask,Bot*%
%TF.FilePolarity,Negative*%
%FSLAX46Y46*%
G04 Gerber Fmt 4.6, Leading zero omitted, Abs format (unit mm)*
G04 Created by KiCad (PCBNEW 10.0.3) date 2026-07-02 15:57:59*
%MOMM*%
%LPD*%
G01*
G04 APERTURE LIST*
%ADD10C,0.650000*%
%ADD11O,1.000000X2.100000*%
%ADD12O,1.000000X1.600000*%
%ADD13R,1.700000X1.700000*%
%ADD14C,1.700000*%
G04 APERTURE END LIST*
D10*
%TO.C,J1*%
X182930000Y-51850000D03*
X177150000Y-51850000D03*
D11*
X184360000Y-52380000D03*
D12*
X184360000Y-48200000D03*
D11*
X175720000Y-52380000D03*
D12*
X175720000Y-48200000D03*
%TD*%
D13*
%TO.C,J4*%
X177500000Y-96140000D03*
D14*
X180040000Y-96140000D03*
X182580000Y-96140000D03*
%TD*%
D13*
%TO.C,J2*%
X171150000Y-48220000D03*
D14*
X171150000Y-50760000D03*
X171150000Y-53300000D03*
X171150000Y-55840000D03*
X171150000Y-58380000D03*
X171150000Y-60920000D03*
X171150000Y-63460000D03*
X171150000Y-66000000D03*
X171150000Y-68540000D03*
X171150000Y-71080000D03*
X171150000Y-73620000D03*
X171150000Y-76160000D03*
X171150000Y-78700000D03*
X171150000Y-81240000D03*
X171150000Y-83780000D03*
X171150000Y-86320000D03*
X171150000Y-88860000D03*
X171150000Y-91400000D03*
X171150000Y-93940000D03*
X171150000Y-96480000D03*
%TD*%
D13*
%TO.C,J3*%
X188930000Y-48180000D03*
D14*
X188930000Y-50720000D03*
X188930000Y-53260000D03*
X188930000Y-55800000D03*
X188930000Y-58340000D03*
X188930000Y-60880000D03*
X188930000Y-63420000D03*
X188930000Y-65960000D03*
X188930000Y-68500000D03*
X188930000Y-71040000D03*
X188930000Y-73580000D03*
X188930000Y-76120000D03*
X188930000Y-78660000D03*
X188930000Y-81200000D03*
X188930000Y-83740000D03*
X188930000Y-86280000D03*
X188930000Y-88820000D03*
X188930000Y-91360000D03*
X188930000Y-93900000D03*
X188930000Y-96440000D03*
%TD*%
M02*
