M48
; DRILL file KiCad 10.0.3 date 2026-07-02T15:57:41
; FORMAT={-:-/ absolute / metric / decimal}
; #@! TF.CreationDate,2026-07-02T15:57:41-04:00
; #@! TF.GenerationSoftware,Kicad,Pcbnew,10.0.3
; #@! TF.FileFunction,Plated,1,2,PTH
FMAT,2
METRIC
; #@! TA.AperFunction,Plated,PTH,ViaDrill
T1C0.300
; #@! TA.AperFunction,Plated,PTH,ComponentDrill
T2C0.600
; #@! TA.AperFunction,Plated,PTH,ComponentDrill
T3C1.000
%
G90
G05
T1
X171.9Y-79.8
X173.5Y-81.0
X174.3Y-58.7
X174.7Y-68.9
X175.305Y-76.295
X175.569Y-73.182
X176.6Y-65.8
X176.7Y-67.0
X177.251Y-83.151
X177.3Y-68.8
X177.5Y-72.4
X177.671Y-77.0
X177.712Y-76.193
X178.3Y-79.1
X178.75Y-62.0
X178.93Y-85.878
X179.6Y-66.9
X179.7Y-69.4
X180.813Y-80.63
X181.1Y-65.7
X181.5Y-76.07
X181.923Y-85.463
X182.013Y-80.785
X182.288Y-76.46
X182.3Y-78.3
X182.5Y-79.1
X183.3Y-86.49
X183.387Y-71.211
X184.0Y-64.0
X184.6Y-65.3
X184.6Y-69.78
X185.102Y-76.847
X185.201Y-74.692
X186.3Y-52.2
X186.6Y-71.8
X187.2Y-58.3
X187.4Y-62.2
X187.6Y-74.8
T3
X171.15Y-48.22
X171.15Y-50.76
X171.15Y-53.3
X171.15Y-55.84
X171.15Y-58.38
X171.15Y-60.92
X171.15Y-63.46
X171.15Y-66.0
X171.15Y-68.54
X171.15Y-71.08
X171.15Y-73.62
X171.15Y-76.16
X171.15Y-78.7
X171.15Y-81.24
X171.15Y-83.78
X171.15Y-86.32
X171.15Y-88.86
X171.15Y-91.4
X171.15Y-93.94
X171.15Y-96.48
X177.5Y-96.14
X180.04Y-96.14
X182.58Y-96.14
X188.93Y-48.18
X188.93Y-50.72
X188.93Y-53.26
X188.93Y-55.8
X188.93Y-58.34
X188.93Y-60.88
X188.93Y-63.42
X188.93Y-65.96
X188.93Y-68.5
X188.93Y-71.04
X188.93Y-73.58
X188.93Y-76.12
X188.93Y-78.66
X188.93Y-81.2
X188.93Y-83.74
X188.93Y-86.28
X188.93Y-88.82
X188.93Y-91.36
X188.93Y-93.9
X188.93Y-96.44
T2
G00X175.72Y-48.5
M15
G01X175.72Y-47.9
M16
G05
G00X175.72Y-52.93
M15
G01X175.72Y-51.83
M16
G05
G00X184.36Y-48.5
M15
G01X184.36Y-47.9
M16
G05
G00X184.36Y-52.93
M15
G01X184.36Y-51.83
M16
G05
M30
